<?xml version="1.0" encoding="UTF-8"?>
<svg xmlns="http://www.w3.org/2000/svg" xmlns:xlink="http://www.w3.org/1999/xlink" width="2100" height="2100" viewBox="0 0 2100 2100">

<path fill-rule="evenodd" fill="rgb(0%, 0%, 0%)" fill-opacity="1" d="M 1104.738281 1178.5 C 1104.738281 1178.5 1039.738281 1195.171875 1013.878906 1237.84375 C 985.226562 1285.132812 1018.699219 1295.445312 979.289062 1346.359375 C 944.40625 1391.414062 797.792969 1550.773438 826.800781 1608.140625 C 826.800781 1608.140625 836.28125 1611.929688 836.441406 1619.300781 C 836.597656 1626.667969 861.757812 1647.824219 861.757812 1647.824219 C 861.757812 1647.824219 840.683594 1643.058594 827.714844 1630.199219 C 827.714844 1630.199219 821.839844 1627.585938 815.640625 1617.78125 C 809.445312 1607.976562 760.976562 1591.945312 720.546875 1587.050781 C 680.117188 1582.152344 615.289062 1584.996094 589.613281 1622.5625 C 563.9375 1660.125 514.296875 1725.007812 503.933594 1749.339844 C 493.574219 1773.671875 479.582031 1795.84375 483.53125 1806.613281 C 487.484375 1817.382812 485.359375 1818.089844 482.101562 1821.289062 C 478.84375 1824.488281 484.015625 1859.285156 484.015625 1859.285156 C 484.015625 1859.285156 463.078125 1828.335938 465.078125 1812.476562 C 467.078125 1796.621094 468.402344 1788.21875 463.664062 1782.453125 C 458.929688 1776.6875 414.582031 1709.054688 384.605469 1699.894531 C 354.632812 1690.738281 308.421875 1712.101562 271.28125 1746.0625 C 234.144531 1780.027344 182.03125 1813.566406 178.238281 1830.484375 C 174.449219 1847.40625 174.394531 1845.890625 169.425781 1847.507812 C 164.460938 1849.125 149.285156 1886.414062 149.285156 1886.414062 C 149.285156 1886.414062 146.679688 1866.050781 157.855469 1843.058594 C 157.855469 1843.058594 152 1836.941406 164.234375 1824.777344 C 176.472656 1812.613281 185.90625 1757.925781 186.828125 1742.425781 C 187.75 1726.925781 257.3125 1539.546875 146.519531 1430.164062 C 146.519531 1430.164062 141.273438 1429.921875 136.035156 1435.527344 C 130.796875 1441.136719 130.460938 1435.683594 126.808594 1438.460938 C 123.15625 1441.238281 109.195312 1449.382812 106.335938 1457.15625 C 106.335938 1457.15625 101.667969 1448.585938 121.445312 1427.976562 C 121.445312 1427.976562 119.425781 1422.96875 128.324219 1417.660156 C 137.226562 1412.355469 158.332031 1401.402344 177.734375 1387.738281 C 197.140625 1374.074219 413.089844 1229.050781 433.773438 1208.859375 C 433.773438 1208.859375 431.011719 1193.839844 443.84375 1189.40625 C 443.84375 1189.40625 447.882812 1169.355469 454 1163.828125 C 454 1163.828125 458.355469 1176.71875 462.296875 1183.539062 C 462.296875 1183.539062 469.414062 1185.960938 471.351562 1192.855469 C 473.289062 1199.746094 483.058594 1201.632812 494.496094 1201.753906 C 505.933594 1201.871094 764.214844 1213.800781 808.171875 1191.472656 C 852.125 1169.140625 882.882812 1123.945312 895.105469 1062.261719 C 918.957031 941.910156 971.34375 930.109375 968.386719 902.851562 C 963.949219 862.011719 961.214844 830.058594 958.191406 800.449219 C 955.167969 770.839844 980.484375 710.238281 1001.339844 693.28125 L 995.890625 688.910156 L 1021.140625 678.859375 C 1021.140625 678.859375 1005.929688 660.53125 1001.359375 648.570312 C 1001.359375 648.570312 1013.398438 654.929688 1019.050781 653.109375 C 1019.050781 653.109375 1003.738281 627.320312 1010.519531 607.058594 C 1010.519531 607.058594 1018.210938 631.898438 1044.300781 643.058594 C 1070.390625 654.210938 1087.488281 660.929688 1092.351562 666.390625 C 1092.351562 666.390625 1093.019531 659.199219 1097.390625 656.660156 C 1101.75 654.128906 1092.398438 632.46875 1078.859375 623.949219 C 1078.859375 623.949219 1106.28125 621.550781 1120.699219 653.320312 C 1120.699219 653.320312 1128.460938 662.121094 1129.671875 668.75 C 1130.878906 675.390625 1146.351562 685.679688 1158.679688 696.101562 C 1171 706.519531 1170.5 710.488281 1169.410156 717.070312 C 1168.308594 723.660156 1169.46875 732.859375 1175.269531 735.53125 C 1181.070312 738.199219 1186.171875 732.441406 1187.339844 747.949219 C 1188.511719 763.449219 1185.398438 770.121094 1180.878906 772.351562 C 1176.351562 774.578125 1165.371094 777.371094 1162.511719 772.089844 C 1159.640625 766.808594 1152.191406 765.210938 1152.191406 765.210938 L 1148.5 766.378906 L 1140.121094 752.789062 L 1132.148438 753.289062 L 1129.140625 750.191406 L 1123.011719 750.101562 L 1119.410156 745.148438 L 1113.289062 745.070312 L 1109.101562 738.269531 L 1110.179688 748.078125 L 1118.738281 749.429688 L 1120.5 754.96875 L 1128.460938 754.46875 L 1129.640625 758.160156 L 1137.019531 755.808594 L 1136.929688 761.929688 L 1145.988281 771.25 L 1152.109375 771.328125 L 1154.449219 778.710938 C 1154.449219 778.710938 1164.128906 784.398438 1162.839844 792.300781 C 1161.539062 800.210938 1157.109375 806.921875 1148.398438 817.210938 L 1139.171875 820.140625 L 1139.261719 814.019531 L 1128.269531 811.410156 L 1127.101562 807.71875 L 1119.71875 810.070312 L 1119.21875 802.101562 L 1108.410156 787.25 L 1099.851562 785.910156 L 1068.238281 769.539062 L 1055.320312 773.640625 L 1060.359375 763.921875 L 1047.441406 768.019531 L 1053.738281 755.859375 C 1053.738281 755.859375 1048.351562 750.179688 1040.230469 758.121094 C 1032.109375 766.058594 1021.390625 787.671875 1031.488281 813.71875 C 1041.578125 839.78125 1050.699219 841.519531 1087.921875 850.648438 C 1125.140625 859.78125 1135.351562 871.628906 1154.160156 886.480469 C 1172.96875 901.339844 1234.710938 888.191406 1247.519531 866.980469 C 1260.328125 845.769531 1282.71875 780.140625 1284.390625 727.269531 C 1286.050781 674.398438 1312.851562 581.46875 1304.988281 568.339844 C 1304.988281 568.339844 1298.199219 564.949219 1299.628906 557.859375 C 1299.628906 557.859375 1287.75 557.550781 1284.871094 562.550781 C 1284.871094 562.550781 1285.488281 552.148438 1301.058594 543.179688 C 1301.058594 543.179688 1304.800781 533.421875 1316.5 534.210938 C 1328.191406 535 1342.398438 506.308594 1351.488281 484.488281 C 1360.578125 462.671875 1389.339844 408.75 1400.5 395.78125 C 1411.671875 382.800781 1510.550781 260.269531 1515.878906 247.371094 C 1521.199219 234.46875 1521.449219 236.140625 1524.609375 236.46875 C 1527.761719 236.800781 1541.660156 214.058594 1551.871094 213.578125 C 1551.871094 213.578125 1534.96875 227.179688 1535 237.230469 C 1535.039062 247.28125 1533.550781 247.128906 1529.300781 251.230469 C 1525.039062 255.339844 1542.78125 273.738281 1553.359375 282.191406 C 1563.929688 290.640625 1625.480469 336.429688 1875.078125 265.289062 C 1875.078125 265.289062 1885.230469 254.261719 1892.949219 257.578125 C 1900.679688 260.898438 1934.75 242.621094 1942.019531 252.140625 C 1942.019531 252.140625 1910.828125 259.191406 1905.691406 265.71875 C 1905.691406 265.71875 1906.058594 271.558594 1892.691406 275.941406 C 1879.320312 280.328125 1874.191406 275.519531 1825.660156 339.910156 C 1777.128906 404.300781 1749.929688 445.46875 1749.121094 469.878906 C 1748.308594 494.289062 1780.96875 575.359375 1845.679688 613.921875 C 1845.679688 613.921875 1856.960938 609.460938 1862.199219 614.761719 C 1867.441406 620.070312 1889.609375 620.289062 1896.328125 626.269531 C 1896.328125 626.269531 1876.671875 626.71875 1868.148438 627.089844 C 1859.640625 627.46875 1856.78125 633.25 1848.53125 629.269531 C 1830.421875 620.539062 1766.320312 652.710938 1726.058594 672.25 C 1685.800781 691.78125 1632.058594 731.261719 1611.550781 759.429688 C 1586.71875 793.519531 1560.441406 882.800781 1581.960938 947.621094 C 1581.960938 947.621094 1595.710938 946.171875 1595.871094 959.449219 C 1596.039062 972.730469 1615.738281 983.609375 1615.738281 983.609375 C 1615.738281 983.609375 1592.738281 983.910156 1584.710938 969.089844 C 1584.710938 969.089844 1575.539062 971.851562 1570.210938 955.410156 C 1564.878906 938.980469 1539.21875 952.761719 1518.710938 959.589844 C 1498.210938 966.421875 1454.339844 992.691406 1431.640625 1011.640625 C 1408.929688 1030.589844 1363.230469 1074.460938 1332.230469 1069.640625 C 1301.230469 1064.808594 1256.449219 1053.441406 1235.441406 1071.949219 C 1235.441406 1071.949219 1254.339844 1090.828125 1260.761719 1100.476562 C 1267.191406 1110.121094 1329.160156 1144.546875 1343.359375 1149.402344 C 1357.550781 1154.257812 1395.738281 1165.484375 1402.890625 1183.308594 C 1410.039062 1201.132812 1407.488281 1204.191406 1407.488281 1204.191406 L 1401.539062 1191.863281 C 1401.539062 1191.863281 1397.160156 1195.4375 1393.578125 1192.363281 C 1390 1189.285156 1374.121094 1182.289062 1374.121094 1182.289062 C 1374.121094 1182.289062 1388.941406 1190.875 1388.628906 1195.96875 C 1388.308594 1201.058594 1386.621094 1209.636719 1371.429688 1199.398438 C 1371.429688 1199.398438 1379.398438 1207.050781 1377.378906 1211.730469 C 1375.371094 1216.410156 1368.621094 1218.058594 1356 1208.367188 C 1356 1208.367188 1353.78125 1217.117188 1361.949219 1220.699219 C 1361.949219 1220.699219 1344.679688 1230.316406 1333.851562 1215.402344 C 1323.03125 1200.492188 1335.828125 1203.589844 1311.640625 1183.859375 C 1287.449219 1164.132812 1269.210938 1152.644531 1269.210938 1152.644531 C 1269.210938 1152.644531 1270.539062 1176.492188 1278.511719 1188.292969 C 1286.480469 1200.09375 1321.71875 1222.078125 1335.53125 1227.0625 C 1349.328125 1232.046875 1414.828125 1208.558594 1431.398438 1202.691406 C 1447.960938 1196.828125 1451.519531 1208.488281 1451.519531 1208.488281 C 1451.519531 1208.488281 1441.558594 1203.453125 1434.328125 1211.917969 C 1427.101562 1220.386719 1427.828125 1216.5625 1412.769531 1220.800781 C 1412.769531 1220.800781 1432.550781 1233.199219 1441.28125 1240.1875 C 1450.011719 1247.175781 1459.601562 1248.929688 1482.789062 1249.34375 C 1503.179688 1249.707031 1554.71875 1232.382812 1576.820312 1225.558594 C 1619.011719 1212.535156 1718.988281 1156.523438 1739.640625 1143.347656 C 1760.289062 1130.167969 1803.589844 1090.101562 1871.988281 1137.859375 C 1871.988281 1137.859375 1912.648438 1128.777344 1947.21875 1144.429688 L 1937.988281 1147.363281 C 1937.988281 1147.363281 1962.941406 1160.609375 1968.578125 1192.496094 C 1974.230469 1224.378906 1994.140625 1247.355469 1994.140625 1247.355469 L 1971 1238.457031 C 1971 1238.457031 1939.550781 1249.984375 1912.789062 1240.699219 C 1886.039062 1231.410156 1882.351562 1228.023438 1882.351562 1228.023438 L 1892.488281 1247.148438 C 1892.488281 1247.148438 1837.019531 1218.472656 1854.949219 1173.75 C 1854.949219 1173.75 1826.039062 1142.289062 1797.089844 1151.503906 C 1768.140625 1160.714844 1713.351562 1193.871094 1675.28125 1234.90625 C 1637.210938 1275.941406 1578.96875 1296.195312 1523.03125 1305.636719 C 1467.078125 1315.074219 1325.941406 1302.28125 1256.851562 1248 C 1256.851562 1248 1218.871094 1232.210938 1191.519531 1234.222656 C 1164.171875 1236.234375 1103.371094 1224.019531 1104.738281 1178.5 "/>
</svg>
